<?xml version="1.0" encoding="UTF-8"?>
<svg id="Camada_2" data-name="Camada 2" xmlns="http://www.w3.org/2000/svg" viewBox="0 0 1003.48 250.68">
  <defs>
    <style>
      .cls-1 {
        fill: #f22;
      }

      .cls-2 {
        fill: #054f77;
      }
    </style>
  </defs>
  <g id="Camada_1-2" data-name="Camada 1">
    <g>
      <path d="m46.6,77.09c5.23,0,10.14.61,14.74,1.81,4.6,1.21,8.68,2.71,12.27,4.5,3.58,1.79,6.29,3.46,8.13,5.01l-6.97,9.15c-2.03-1.93-5.57-4.01-10.6-6.24-5.03-2.23-10.74-3.34-17.13-3.34-8.23,0-15.24,1.74-21.05,5.23-5.81,3.48-8.71,8.52-8.71,15.1s2.93,11.32,8.78,15.1c5.85,3.77,13.43,6.87,22.72,9.29,7.06,1.74,13.4,3.94,19.02,6.61,5.61,2.66,10.04,6.22,13.28,10.67,3.24,4.45,4.86,10.31,4.86,17.57,0,6.1-1.21,11.37-3.63,15.82-2.42,4.45-5.76,8.13-10.02,11.03-4.26,2.9-9.15,5.11-14.66,6.6-5.52,1.5-11.42,2.25-17.71,2.25s-11.81-.7-17.13-2.11c-5.32-1.4-9.92-3.14-13.79-5.23-3.87-2.08-6.87-3.99-9-5.73l7.26-10.31c2.52,2.71,6.68,5.45,12.49,8.2,5.81,2.76,12.68,4.14,20.61,4.14,9.48,0,17.32-2.27,23.52-6.82,6.19-4.55,9.29-10.45,9.29-17.71,0-5.52-1.48-9.87-4.43-13.07-2.95-3.19-6.82-5.76-11.61-7.69-4.79-1.93-9.85-3.53-15.17-4.79-5.13-1.35-9.94-2.93-14.44-4.72s-8.44-4.04-11.83-6.75c-3.39-2.71-6.05-5.93-7.98-9.65-1.94-3.73-2.9-8.06-2.9-12.99,0-6.19,1.89-11.59,5.66-16.19,3.77-4.59,8.86-8.2,15.24-10.82,6.39-2.61,13.36-3.92,20.9-3.92Z"/>
      <path d="m107.14,80.57h25.55V31.65h12.05v48.92h33.39v11.61h-33.39v76.51c0,8.52,1.57,14.47,4.72,17.86,3.14,3.39,6.94,5.08,11.4,5.08s7.62-.75,9.8-2.25c2.18-1.5,3.46-2.49,3.85-2.98l6.53,9.73c-.58.49-1.77,1.31-3.56,2.47-1.79,1.16-4.16,2.23-7.11,3.19-2.95.97-6.6,1.45-10.96,1.45-7.45,0-13.77-2.47-18.95-7.4-5.18-4.94-7.77-12.92-7.77-23.95v-79.7h-25.55v-11.61Z"/>
      <path d="m305.01,199.76v-25.84c-.58,2.61-2.81,6.29-6.68,11.03-3.87,4.74-9.24,8.98-16.11,12.7-6.87,3.72-15.05,5.59-24.53,5.59-10.65,0-20.52-2.45-29.61-7.33-9.1-4.89-16.43-12.05-21.99-21.49-5.57-9.43-8.35-20.83-8.35-34.19s2.78-24.75,8.35-34.19c5.56-9.44,12.9-16.62,21.99-21.56,9.1-4.93,18.97-7.4,29.61-7.4,9.39,0,17.54,1.81,24.46,5.44,6.92,3.63,12.36,7.74,16.33,12.34,3.97,4.6,6.15,8.45,6.53,11.54v-25.84h11.9v119.19h-11.9Zm-95.09-59.52c0,10.74,2.32,19.99,6.97,27.73,4.65,7.74,10.65,13.65,18,17.71,7.35,4.07,15.05,6.1,23.08,6.1,8.9,0,16.84-2.08,23.81-6.24,6.97-4.16,12.49-10.11,16.55-17.86,4.06-7.74,6.1-16.89,6.1-27.44s-2.03-19.69-6.1-27.44c-4.06-7.74-9.58-13.72-16.55-17.93-6.97-4.21-14.91-6.31-23.81-6.31-8.03,0-15.73,2.06-23.08,6.17-7.36,4.11-13.36,10.04-18,17.78-4.64,7.74-6.97,16.98-6.97,27.73Z"/>
      <path d="m410.84,77.09c7.35,0,14.56,1.6,21.63,4.79,7.06,3.19,12.87,8.27,17.42,15.24,4.55,6.97,6.82,16.02,6.82,27.15v75.49h-12.49v-72.15c0-14.13-3.29-24.22-9.87-30.27-6.58-6.05-14.91-9.07-24.97-9.07-6.78,0-13.28,1.96-19.53,5.88-6.24,3.92-11.4,9.24-15.46,15.97-4.06,6.73-6.1,14.25-6.1,22.57v67.07h-12.2v-119.19h12.2v23.81c.58-3.48,2.85-7.35,6.82-11.62,3.97-4.26,9.07-7.93,15.32-11.03,6.24-3.09,13.04-4.64,20.4-4.64Z"/>
      <path class="cls-2" d="m713.24,250.49h-40.74l-43.47-124.47h41.21l22.63,77.23,22.63-77.23h41.21l-43.47,124.47Z"/>
      <path class="cls-2" d="m786.51,126.03h43c13.26,0,24.31,2.66,33.14,7.97,8.83,5.31,15.48,12.65,19.94,22.02,4.46,9.37,6.69,20.08,6.69,32.15s-2.23,22.88-6.69,32.25c-4.46,9.37-11.11,16.72-19.94,22.06-8.83,5.34-19.88,8.01-33.14,8.01h-43v-124.47Zm36.49,32.15v60.16h3.21c5.22,0,9.62-1.32,13.2-3.96,3.58-2.64,6.32-6.24,8.2-10.8,1.89-4.56,2.83-9.63,2.83-15.23s-.93-10.76-2.78-15.32c-1.86-4.56-4.59-8.17-8.2-10.84-3.62-2.67-8.03-4.01-13.25-4.01h-3.21Z"/>
      <path class="cls-2" d="m919.93,126.03h83.54v31.68h-47.05v15.09h47.05v30.65h-47.05v15.37h47.05v31.68h-83.54v-124.47Z"/>
      <path class="cls-1" d="m597.67,0l.23,103.56c-4.69-6.95-10.57-12.71-17.66-17.23-9.06-5.78-19.47-8.67-31.22-8.67s-22.19,2.89-31.3,8.67c-9.11,5.78-16.26,13.54-21.45,23.29-5.19,9.75-7.79,20.5-7.79,32.25s2.59,22.43,7.79,32.03c5.19,9.6,12.34,17.24,21.45,22.92,9.11,5.68,19.54,8.52,31.3,8.52s22.16-2.84,31.22-8.52c7.18-4.5,13.1-10.25,17.82-17.2l.04,20.15h12.2V0h-12.63Zm-93.39,114.17c4.26-8.28,10.23-14.86,17.93-19.76,7.69-4.9,16.62-7.35,26.82-7.35s19.1,2.45,26.74,7.35c7.64,4.9,13.57,11.49,17.78,19.76,1.74,3.42,3.1,7.01,4.12,10.76h-97.55c1.03-3.74,2.41-7.34,4.17-10.76Zm25.37,78.31c-2.59-1.01-5.08-2.22-7.44-3.68-7.69-4.75-13.66-11.21-17.93-19.39-1.82-3.49-4.27-11.04-4.27-11.04h29.64v34.1Zm19.72-34.62c-6.16,0-11.16-5-11.16-11.16s5-11.16,11.16-11.16,11.16,5,11.16,11.16-5,11.16-11.16,11.16Zm44.17,11.55c-4.21,8.18-10.14,14.65-17.78,19.39-2.4,1.49-4.93,2.72-7.58,3.74v-34.17h29.58c-1.03,3.86-2.42,7.54-4.22,11.04Z"/>
      <path class="cls-2" d="m548.66,207.59c-6.48,0-12.54-.93-18.21-2.72v45.82h38.47v-46.48c-6.24,2.26-12.98,3.39-20.25,3.39Z"/>
    </g>
  </g>
</svg>